<?xml version="1.0" encoding="UTF-8"?>
<svg id="Layer_2" data-name="Layer 2" xmlns="http://www.w3.org/2000/svg" viewBox="0 0 1231.85 837.95">
  <defs>
    <style>
      .cls-1 {
        stroke-width: 0px;
      }
    </style>
  </defs>
  <g id="Layer_2-2" data-name="Layer 2">
    <g>
      <path class="cls-1" d="M1056.06,626.44c44.11,16.5,175.79,83.54,175.79,83.54-131.81-140.31-304.76-175.66-304.76-175.66L618.11,0l-280.18,486.35c56.53-18.64,188.06-28.56,188.06-28.56l93.35-166.5,114.99,210.43c-102.05-14.17-287.71-5.67-443.61,36.85C146.45,577.92,0,705.01,0,705.01c154.49-77.95,272.29-108.33,272.29-108.33l-138.11,241.27,169.29-.33,160.15-272.12s130.68-10.24,174.33-9.92c61.24.44,183.53,13.11,243.77,24.09,44.39,8.09,132.06,30.96,174.33,46.77Z"/>
      <path class="cls-1" d="M800.95,608.02l131.48,228.07,168.97,1.24-110.57-194.44s-66.57-22.12-189.88-34.87Z"/>
    </g>
  </g>
</svg>